# xmcd
#
# Track frame offsets:
#	182
#	12720
#	36477
#	66025
#	101030
#
# Disc length: 1741 seconds
#
# Revision: 2
# Processed by: cddbd v1.4PL0 Copyright (c) Steve Scherf et al.
# Submitted via: audiograbber 1.82.00
#
DISCID=4306cb05
DTITLE=Sub Sub ft Melanie Williams - Ain't No Love [CD Single)
DYEAR=1993
DGENRE=Dance
TTITLE0=Ain't No Love (Original Edit)
TTITLE1=Ain't No Love (12' Original)
TTITLE2=Ain't No Love (On The House Mix)
TTITLE3=Ain't No Love (Parkside Mix Edit)
TTITLE4=Ain't No Love (Dmc Mix)
EXTD=
EXTT0=
EXTT1=
EXTT2=
EXTT3=
EXTT4=
PLAYORDER=
